<?xml version="1.0" standalone="no"?>
<!DOCTYPE svg PUBLIC "-//W3C//DTD SVG 20010904//EN"
 "http://www.w3.org/TR/2001/REC-SVG-20010904/DTD/svg10.dtd">
<svg version="1.0" xmlns="http://www.w3.org/2000/svg"
 width="260.000000pt" height="260.000000pt" viewBox="0 0 260.000000 260.000000"
 preserveAspectRatio="xMidYMid meet">
<metadata>
Created by potrace 1.14, written by Peter Selinger 2001-2017
</metadata>
<g transform="translate(0.000000,260.000000) scale(0.100000,-0.100000)"
fill="#000000" stroke="none">
<path d="M1260 2274 c12 -13 2 -26 -66 -95 l-79 -79 -70 69 c-59 60 -73 68
-89 59 -16 -9 -11 -17 55 -84 l74 -74 -80 -80 -80 -80 -77 77 -78 78 72 72
c40 40 69 73 65 73 -14 0 -82 -38 -127 -71 -25 -19 -49 -34 -55 -34 -5 0 -15
-11 -21 -24 -19 -37 -155 -170 -169 -164 -8 2 -16 -6 -20 -19 -4 -13 -18 -34
-30 -48 -28 -29 -95 -139 -95 -154 0 -6 36 25 80 69 l80 80 77 -78 78 -77 -80
-80 -80 -80 -75 75 c-41 41 -78 75 -82 75 -4 0 -8 -8 -11 -17 -2 -12 21 -43
67 -91 l71 -72 -80 -80 -79 -80 -22 21 -22 21 0 -77 -1 -77 25 23 25 23 77
-77 77 -77 -73 -73 c-39 -40 -72 -78 -72 -85 0 -27 64 -139 102 -179 22 -22
37 -46 34 -52 -4 -6 -2 -20 4 -31 9 -18 14 -19 26 -9 13 11 28 0 91 -64 64
-63 75 -78 64 -91 -10 -12 -9 -17 9 -26 11 -6 25 -8 31 -4 6 3 30 -12 52 -34
40 -38 152 -102 179 -102 7 0 45 33 85 72 l73 73 77 -77 77 -77 -23 -25 -23
-25 77 1 77 0 -21 22 -21 22 80 79 80 80 72 -71 c48 -46 79 -69 91 -67 9 3 17
7 17 11 0 4 -34 41 -75 82 l-75 75 80 80 80 80 77 -78 78 -77 -80 -80 c-44
-44 -75 -80 -69 -80 15 0 125 67 154 95 14 12 35 26 48 30 13 4 21 12 19 20
-6 14 127 150 164 169 13 6 24 16 24 21 0 6 15 30 34 55 33 45 71 113 71 127
0 4 -33 -25 -73 -65 l-72 -72 -78 78 -77 77 80 80 80 80 74 -74 c67 -66 75
-71 84 -55 9 16 1 30 -59 89 l-69 70 79 79 c69 68 82 78 95 66 14 -11 16 -5
16 51 0 60 -1 62 -17 46 -16 -16 -22 -13 -95 60 l-78 78 66 66 c59 60 66 70
60 95 -7 27 -7 27 -84 -49 l-77 -77 -78 78 -77 77 80 80 80 79 61 -59 61 -60
-22 45 c-28 54 -82 135 -92 135 -11 0 -167 157 -165 166 3 9 -86 70 -143 99
l-45 22 60 -61 59 -61 -79 -80 -80 -80 -77 77 -78 78 77 77 c76 77 76 77 49
84 -25 6 -35 -1 -95 -60 l-66 -66 -78 78 c-73 73 -76 79 -60 95 16 16 14 17
-46 17 -56 0 -62 -2 -51 -16z m130 -129 l75 -75 -80 -80 -80 -80 -77 77 -78
78 77 77 c43 43 80 78 83 78 3 0 39 -34 80 -75z m-570 -190 l75 -75 -80 -80
-80 -80 -77 77 -78 78 77 77 c43 43 80 78 83 78 3 0 39 -34 80 -75z m380 0
l75 -75 -80 -80 -80 -80 -77 77 -78 78 77 77 c43 43 80 78 83 78 3 0 39 -34
80 -75z m380 0 l75 -75 -80 -80 -80 -80 -77 77 -78 78 77 77 c43 43 80 78 83
78 3 0 39 -34 80 -75z m380 0 l75 -75 -80 -80 -80 -80 -77 77 -78 78 77 77
c43 43 80 78 83 78 3 0 39 -34 80 -75z m-950 -190 l75 -75 -80 -80 -80 -80
-77 77 -78 78 77 77 c43 43 80 78 83 78 3 0 39 -34 80 -75z m380 0 l75 -75
-80 -80 -80 -80 -77 77 -78 78 77 77 c43 43 80 78 83 78 3 0 39 -34 80 -75z
m380 0 l75 -75 -80 -80 -80 -80 -77 77 -78 78 77 77 c43 43 80 78 83 78 3 0
39 -34 80 -75z m-950 -190 l75 -75 -80 -80 -80 -80 -77 77 -78 78 77 77 c43
43 80 78 83 78 3 0 39 -34 80 -75z m380 0 l75 -75 -80 -80 -80 -80 -77 77 -78
78 77 77 c43 43 80 78 83 78 3 0 39 -34 80 -75z m380 0 l75 -75 -80 -80 -80
-80 -77 77 -78 78 77 77 c43 43 80 78 83 78 3 0 39 -34 80 -75z m380 0 l75
-75 -80 -80 -80 -80 -77 77 -78 78 77 77 c43 43 80 78 83 78 3 0 39 -34 80
-75z m-1330 -190 l75 -75 -80 -80 -80 -80 -77 77 -78 78 77 77 c43 43 80 78
83 78 3 0 39 -34 80 -75z m380 0 l75 -75 -80 -80 -80 -80 -77 77 -78 78 77 77
c43 43 80 78 83 78 3 0 39 -34 80 -75z m380 0 l75 -75 -80 -80 -80 -80 -77 77
-78 78 77 77 c43 43 80 78 83 78 3 0 39 -34 80 -75z m380 0 l75 -75 -80 -80
-80 -80 -77 77 -78 78 77 77 c43 43 80 78 83 78 3 0 39 -34 80 -75z m380 0
l75 -75 -80 -80 -80 -80 -77 77 -78 78 77 77 c43 43 80 78 83 78 3 0 39 -34
80 -75z m-1330 -190 l75 -75 -80 -80 -80 -80 -77 77 -78 78 77 77 c43 43 80
78 83 78 3 0 39 -34 80 -75z m380 0 l75 -75 -80 -80 -80 -80 -77 77 -78 78 77
77 c43 43 80 78 83 78 3 0 39 -34 80 -75z m380 0 l75 -75 -80 -80 -80 -80 -77
77 -78 78 77 77 c43 43 80 78 83 78 3 0 39 -34 80 -75z m380 0 l75 -75 -80
-80 -80 -80 -77 77 -78 78 77 77 c43 43 80 78 83 78 3 0 39 -34 80 -75z
m-1330 -190 l75 -75 -80 -80 -80 -80 -77 77 -78 78 77 77 c43 43 80 78 83 78
3 0 39 -34 80 -75z m380 0 l75 -75 -80 -80 -80 -80 -77 77 -78 78 77 77 c43
43 80 78 83 78 3 0 39 -34 80 -75z m380 0 l75 -75 -80 -80 -80 -80 -77 77 -78
78 77 77 c43 43 80 78 83 78 3 0 39 -34 80 -75z m380 0 l75 -75 -80 -80 -80
-80 -77 77 -78 78 77 77 c43 43 80 78 83 78 3 0 39 -34 80 -75z m-950 -190
l75 -75 -80 -80 -80 -80 -77 77 -78 78 77 77 c43 43 80 78 83 78 3 0 39 -34
80 -75z m380 0 l75 -75 -80 -80 -80 -80 -77 77 -78 78 77 77 c43 43 80 78 83
78 3 0 39 -34 80 -75z m380 0 l75 -75 -80 -80 -80 -80 -77 77 -78 78 77 77
c43 43 80 78 83 78 3 0 39 -34 80 -75z m380 0 l75 -75 -80 -80 -80 -80 -77 77
-78 78 77 77 c43 43 80 78 83 78 3 0 39 -34 80 -75z m-950 -190 l75 -75 -80
-80 -80 -80 -77 77 -78 78 77 77 c43 43 80 78 83 78 3 0 39 -34 80 -75z m380
0 l75 -75 -80 -80 -80 -80 -77 77 -78 78 77 77 c43 43 80 78 83 78 3 0 39 -34
80 -75z"/>
</g>
</svg>
