<svg xmlns="http://www.w3.org/2000/svg" xmlns:xlink="http://www.w3.org/1999/xlink" viewBox="0 0 600 600"><defs><style>.a{fill:none;}.b{fill:#fff;}.c{fill:#0075c2;}.d{clip-path:url(#a);}.e{fill:#0075c1;}.f{fill:#e4004f;}</style><clipPath id="a"><path class="a" d="M500.26,290.754l0-15.311a18.514,18.514,0,0,0-18.515-18.51H118.26a18.515,18.515,0,0,0-18.516,18.51l0,15.311c0,80.608,52.263,145.712,126.177,172.04l-11.375,41.06c-1.611,5.815,3.547,11.392,10.536,11.392H374.922c6.989,0,12.147-5.577,10.536-11.392l-11.375-41.06C448,436.466,500.26,371.362,500.26,290.754Z"/></clipPath></defs><path class="b" d="M315.386,93.645,154.6,228.18a18.519,18.519,0,0,0-6.43,16.94l18.844,125.964,285.67-76.259-19.032-127.22a18.517,18.517,0,0,0-9.321-13.446Z"/><path d="M315.385,93.645l108.94,60.514a18.511,18.511,0,0,1,9.321,13.446l19.032,127.22L167.009,371.084,148.165,245.12a18.518,18.518,0,0,1,6.431-16.94L315.385,93.645m0-11.1a11.1,11.1,0,0,0-7.127,2.588L147.47,219.664a29.8,29.8,0,0,0-10.287,27.1l18.845,125.964a11.106,11.106,0,0,0,13.845,9.086l285.67-76.26a11.1,11.1,0,0,0,8.118-12.371l-19.032-127.22a29.8,29.8,0,0,0-14.912-21.51L320.777,83.938a11.087,11.087,0,0,0-5.39-1.4Z"/><path class="c" d="M346.871,108.969a36.061,36.061,0,1,1-71.329,10.671C272.6,99.943,284.2,68.374,303.9,65.428S343.925,89.272,346.871,108.969Z"/><path d="M184.149,230.283a3.266,3.266,0,0,1-.836-6.424l218.119-57.842a3.266,3.266,0,1,1,1.671,6.315L184.984,230.174A3.269,3.269,0,0,1,184.149,230.283Z"/><path d="M179.135,280.786c-5.167,0-9.045-1.652-12.585-3.161-4.656-1.977-8.656-3.693-15.628-1.846l-1.671-6.315c9.1-2.408,14.824.006,19.857,2.152,4.663,1.984,8.662,3.7,15.628,1.847s9.6-5.32,12.661-9.348c3.311-4.353,7.062-9.29,16.189-11.711,9.109-2.424,14.831.009,19.864,2.15,4.656,1.98,8.656,3.686,15.634,1.846,6.959-1.846,9.6-5.323,12.661-9.348,3.311-4.356,7.062-9.29,16.19-11.711s14.83.006,19.869,2.15c4.657,1.983,8.688,3.69,15.634,1.843s9.6-5.323,12.662-9.351c3.3-4.354,7.055-9.288,16.183-11.708s14.836.006,19.869,2.146c4.657,1.981,8.669,3.7,15.647,1.844s9.613-5.327,12.681-9.355c3.317-4.353,7.074-9.29,16.215-11.714s14.843,0,19.882,2.143c4.656,1.977,8.681,3.687,15.653,1.84l1.671,6.315c-9.108,2.421-14.836-.006-19.882-2.143-4.65-1.981-8.675-3.69-15.653-1.84s-9.619,5.326-12.687,9.357c-3.317,4.354-7.074,9.288-16.209,11.712s-14.843-.01-19.876-2.147c-4.656-1.984-8.675-3.7-15.64-1.843s-9.594,5.319-12.655,9.344c-3.311,4.357-7.062,9.294-16.19,11.715-9.108,2.427-14.83-.006-19.863-2.15-4.656-1.974-8.668-3.7-15.64-1.843s-9.6,5.32-12.662,9.348c-3.31,4.353-7.061,9.29-16.189,11.711s-14.824-.01-19.863-2.153c-4.657-1.977-8.694-3.693-15.634-1.843-6.959,1.846-9.6,5.323-12.662,9.348-3.311,4.356-7.061,9.29-16.189,11.711A28.282,28.282,0,0,1,179.135,280.786Z"/><path d="M500.26,290.754l0-15.311a18.514,18.514,0,0,0-18.515-18.51H118.26a18.515,18.515,0,0,0-18.516,18.51l0,15.311c0,80.608,52.263,145.712,126.177,172.04l-11.375,41.06c-1.611,5.815,3.547,11.392,10.536,11.392H374.922c6.989,0,12.147-5.577,10.536-11.392l-11.375-41.06C448,436.466,500.26,371.362,500.26,290.754Z"/><path d="M481.74,256.933a18.515,18.515,0,0,1,18.515,18.51l0,15.311c0,80.608-52.263,145.712-126.178,172.04l11.376,41.06c1.611,5.815-3.548,11.392-10.536,11.392H225.078c-6.989,0-12.148-5.577-10.536-11.392l11.375-41.06C152,436.466,99.74,371.362,99.74,290.754l.005-15.311a18.514,18.514,0,0,1,18.514-18.51H481.74m0-11.1H118.259A29.653,29.653,0,0,0,88.641,275.44l-.005,15.311c0,78.667,48.279,147.814,123.886,178.8l-8.681,31.336a19.193,19.193,0,0,0,3.315,16.859,22.511,22.511,0,0,0,17.922,8.6H374.922a22.514,22.514,0,0,0,17.921-8.6,19.2,19.2,0,0,0,3.316-16.86l-8.682-31.336c75.608-30.989,123.887-100.136,123.887-178.8l0-15.315a29.654,29.654,0,0,0-29.619-29.61Z"/><g class="d"><rect class="e" x="-56.843" y="175.442" width="441.907" height="6.531" transform="translate(-78.299 168.386) rotate(-45)"/><rect class="e" x="-26.775" y="205.511" width="441.908" height="6.531" transform="translate(-90.754 198.454) rotate(-45)"/><rect class="e" x="3.294" y="235.58" width="441.908" height="6.531" transform="translate(-103.209 228.523) rotate(-45)"/><rect class="e" x="33.362" y="265.649" width="441.909" height="6.531" transform="translate(-115.663 258.592) rotate(-45)"/><rect class="e" x="63.431" y="295.717" width="441.909" height="6.531" transform="translate(-128.118 288.661) rotate(-45)"/><rect class="e" x="93.499" y="325.786" width="441.91" height="6.531" transform="translate(-140.573 318.729) rotate(-45)"/><rect class="e" x="123.568" y="355.855" width="441.91" height="6.531" transform="translate(-153.028 348.798) rotate(-45)"/><rect class="e" x="153.636" y="385.923" width="441.911" height="6.531" transform="translate(-165.483 378.867) rotate(-45)"/><rect class="e" x="183.705" y="415.992" width="441.911" height="6.531" transform="translate(-177.938 408.936) rotate(-45)"/><rect class="e" x="213.773" y="446.061" width="441.912" height="6.531" transform="translate(-190.393 439.004) rotate(-45)"/><rect class="f" x="432.101" y="-41.611" width="6.531" height="441.909" transform="translate(0.701 360.382) rotate(-45)"/><rect class="f" x="402.032" y="-11.542" width="6.531" height="441.909" transform="translate(-29.368 347.926) rotate(-45)"/><rect class="f" x="371.964" y="18.527" width="6.531" height="441.908" transform="translate(-59.437 335.471) rotate(-45)"/><rect class="f" x="341.895" y="48.596" width="6.531" height="441.908" transform="translate(-89.506 323.016) rotate(-45)"/><rect class="f" x="311.826" y="78.665" width="6.531" height="441.907" transform="translate(-119.574 310.56) rotate(-45)"/><rect class="f" x="281.758" y="108.734" width="6.531" height="441.907" transform="translate(-149.643 298.105) rotate(-45)"/><rect class="f" x="251.689" y="138.803" width="6.531" height="441.906" transform="translate(-179.712 285.649) rotate(-45)"/><rect class="f" x="221.62" y="168.872" width="6.531" height="441.906" transform="translate(-209.78 273.194) rotate(-45)"/><rect class="f" x="191.551" y="198.941" width="6.531" height="441.905" transform="translate(-239.849 260.739) rotate(-45)"/><rect class="f" x="161.483" y="229.01" width="6.531" height="441.905" transform="translate(-269.917 248.283) rotate(-45)"/></g></svg>