<svg xmlns="http://www.w3.org/2000/svg" xmlns:xlink="http://www.w3.org/1999/xlink" viewBox="0 0 600 600"><defs><style>.a{fill:none;}.b{fill:#fff;}.c{fill:#e4004f;}.d{clip-path:url(#a);}.e{fill:#0075c1;}</style><clipPath id="a"><path class="a" d="M500.26,290.751l0-15.312a18.515,18.515,0,0,0-18.516-18.51H118.259a18.515,18.515,0,0,0-18.515,18.51l0,15.312c0,80.608,52.264,145.714,126.178,172.042l-11.376,41.061c-1.611,5.815,3.548,11.392,10.537,11.392H374.922c6.989,0,12.147-5.577,10.536-11.392l-11.375-41.061C448,436.465,500.26,371.359,500.26,290.751Z"/></clipPath></defs><path class="b" d="M315.386,93.638,154.6,228.176a18.515,18.515,0,0,0-6.43,16.94l18.844,125.966,285.67-76.261L433.647,167.6a18.518,18.518,0,0,0-9.321-13.447Z"/><path d="M315.386,93.638l108.94,60.515a18.518,18.518,0,0,1,9.321,13.447l19.031,127.221L167.009,371.082,148.164,245.116a18.52,18.52,0,0,1,6.431-16.94L315.386,93.638m0-11.1a11.1,11.1,0,0,0-7.127,2.588L147.469,219.66a29.8,29.8,0,0,0-10.286,27.1l18.844,125.967a11.107,11.107,0,0,0,13.846,9.086L455.542,305.55a11.1,11.1,0,0,0,8.118-12.372L444.628,165.957a29.8,29.8,0,0,0-14.911-21.511L320.778,83.931a11.091,11.091,0,0,0-5.391-1.4Z"/><path class="c" d="M346.871,108.963a36.061,36.061,0,1,1-71.329,10.671C272.6,99.936,284.2,68.367,303.9,65.421S343.925,89.265,346.871,108.963Z"/><path d="M184.149,230.28a3.266,3.266,0,0,1-.836-6.423l218.12-57.846a3.266,3.266,0,1,1,1.671,6.315L184.985,230.172A3.325,3.325,0,0,1,184.149,230.28Z"/><path d="M179.135,280.784c-5.166,0-9.045-1.652-12.585-3.161-4.656-1.977-8.656-3.7-15.628-1.846l-1.671-6.315c9.1-2.411,14.824.009,19.857,2.153,4.663,1.98,8.662,3.7,15.628,1.846s9.6-5.323,12.662-9.351c3.31-4.354,7.061-9.291,16.189-11.711s14.83.012,19.863,2.152c4.65,1.978,8.675,3.684,15.634,1.844s9.6-5.32,12.662-9.348c3.31-4.354,7.061-9.291,16.189-11.712s14.824.007,19.87,2.15c4.656,1.984,8.681,3.687,15.634,1.843s9.6-5.323,12.661-9.348c3.311-4.353,7.055-9.29,16.183-11.711s14.843.006,19.87,2.15c4.656,1.974,8.675,3.7,15.647,1.843s9.612-5.329,12.681-9.358c3.316-4.353,7.067-9.29,16.208-11.714s14.849.006,19.889,2.143c4.65,1.981,8.675,3.69,15.653,1.84l1.671,6.315c-9.147,2.421-14.85-.009-19.882-2.143-4.657-1.981-8.682-3.687-15.66-1.84s-9.619,5.326-12.681,9.354c-3.317,4.357-7.067,9.294-16.208,11.718s-14.843,0-19.87-2.15c-4.656-1.977-8.668-3.7-15.647-1.843-6.952,1.843-9.593,5.323-12.655,9.348-3.31,4.353-7.061,9.291-16.189,11.711-9.109,2.418-14.837-.006-19.863-2.149-4.65-1.974-8.663-3.7-15.641-1.844-6.959,1.847-9.6,5.323-12.662,9.348-3.31,4.357-7.061,9.291-16.189,11.712-9.108,2.424-14.837-.007-19.863-2.15-4.65-1.977-8.662-3.706-15.634-1.846s-9.6,5.323-12.662,9.351c-3.31,4.353-7.061,9.29-16.189,11.711A28.238,28.238,0,0,1,179.135,280.784Z"/><path class="b" d="M500.26,290.751l0-15.312a18.515,18.515,0,0,0-18.516-18.51H118.259a18.515,18.515,0,0,0-18.515,18.51l0,15.312c0,80.608,52.264,145.714,126.178,172.042l-11.376,41.061c-1.611,5.815,3.548,11.392,10.537,11.392H374.922c6.989,0,12.147-5.577,10.536-11.392l-11.375-41.061C448,436.465,500.26,371.359,500.26,290.751Z"/><path d="M481.74,256.929a18.514,18.514,0,0,1,18.515,18.51l0,15.312c0,80.608-52.263,145.714-126.177,172.042l11.375,41.061c1.612,5.815-3.547,11.392-10.536,11.392H225.078c-6.99,0-12.148-5.577-10.537-11.392l11.376-41.061C152,436.465,99.74,371.359,99.74,290.751l0-15.312a18.515,18.515,0,0,1,18.516-18.51H481.74m0-11.1H118.26a29.655,29.655,0,0,0-29.62,29.611l0,15.312c0,78.668,48.279,147.816,123.885,178.805l-8.681,31.336a19.2,19.2,0,0,0,3.316,16.861,22.514,22.514,0,0,0,17.922,8.6H374.922a22.511,22.511,0,0,0,17.922-8.6,19.2,19.2,0,0,0,3.315-16.861l-8.681-31.335c75.606-30.989,123.886-100.137,123.886-178.8l0-15.315a29.653,29.653,0,0,0-29.619-29.611Z"/><g class="d"><rect class="e" x="-56.844" y="175.437" width="441.909" height="6.531" transform="translate(-78.295 168.383) rotate(-45)"/><rect class="e" x="-26.775" y="205.507" width="441.909" height="6.531" transform="translate(-90.75 198.451) rotate(-45)"/><rect class="e" x="3.293" y="235.576" width="441.91" height="6.531" transform="translate(-103.206 228.52) rotate(-45)"/><rect class="e" x="33.362" y="265.645" width="441.91" height="6.531" transform="translate(-115.661 258.589) rotate(-45)"/><rect class="e" x="63.43" y="295.714" width="441.911" height="6.531" transform="translate(-128.116 288.657) rotate(-45)"/><rect class="e" x="93.499" y="325.783" width="441.911" height="6.531" transform="translate(-140.571 318.726) rotate(-45)"/><rect class="e" x="123.567" y="355.853" width="441.912" height="6.531" transform="translate(-153.026 348.795) rotate(-45)"/><rect class="e" x="153.636" y="385.922" width="441.912" height="6.531" transform="translate(-165.481 378.863) rotate(-45)"/><rect class="e" x="183.704" y="415.991" width="441.913" height="6.531" transform="translate(-177.937 408.932) rotate(-45)"/><rect class="e" x="213.773" y="446.06" width="441.913" height="6.531" transform="translate(-190.392 439.001) rotate(-45)"/><rect class="c" x="432.102" y="-41.618" width="6.531" height="441.915" transform="translate(0.703 360.376) rotate(-45)"/><rect class="c" x="402.033" y="-11.549" width="6.531" height="441.915" transform="translate(-29.366 347.921) rotate(-45)"/><rect class="c" x="371.964" y="18.52" width="6.531" height="441.915" transform="translate(-59.435 335.466) rotate(-45)"/><rect class="c" x="341.894" y="48.589" width="6.531" height="441.915" transform="translate(-89.504 323.011) rotate(-45)"/><rect class="c" x="311.825" y="78.658" width="6.531" height="441.915" transform="translate(-119.573 310.556) rotate(-45)"/><rect class="c" x="281.756" y="108.727" width="6.531" height="441.915" transform="translate(-149.642 298.1) rotate(-45)"/><rect class="c" x="251.687" y="138.797" width="6.531" height="441.915" transform="translate(-179.71 285.645) rotate(-45)"/><rect class="c" x="221.618" y="168.866" width="6.531" height="441.915" transform="translate(-209.779 273.19) rotate(-45)"/><rect class="c" x="191.549" y="198.935" width="6.531" height="441.915" transform="translate(-239.848 260.735) rotate(-45)"/><rect class="c" x="161.479" y="229.004" width="6.531" height="441.915" transform="translate(-269.917 248.28) rotate(-45)"/></g></svg>